<svg xmlns="http://www.w3.org/2000/svg" viewBox="0 0 23.44 18.92"><defs><style>.cls-1{fill:#00ef86;}</style></defs><g id="Layer_2" data-name="Layer 2"><g id="Layer_1-2" data-name="Layer 1"><path class="cls-1" d="M14.39,9a.06.06,0,0,1,0,0s.06,0,.12-.05a.3.3,0,0,0,.07-.1,2.46,2.46,0,0,1,.22-.25l0,0c0,.07.11-.06.13,0s0,0,0,0,0,0,0,0l0,0c.07-.08.05-.11,0-.15h0s0-.09.1-.12,0,0,0,0l0-.05c.1,0,.12-.14.19-.2a1.39,1.39,0,0,1,.21-.21s0,0,.08,0a.33.33,0,0,0,.23-.16,1.24,1.24,0,0,1,.18-.22.76.76,0,0,0,.08-.11.53.53,0,0,1,.06-.1c.11-.14.22-.28.31-.42a.38.38,0,0,1,.17-.14l0,0c0-.1.16-.17.22-.26l0,0s0,0,0,0l0,0-.08.13A.28.28,0,0,0,17,6.38a.26.26,0,0,1,.1,0c.07,0,.07,0,.12-.09l.05-.06a1,1,0,0,1,.17-.14s-.08.09-.1.14l0,0a.1.1,0,0,0,0,0s0,0,.05,0A1.3,1.3,0,0,0,17.55,6c.07-.12.19-.17.27-.26h0c.06,0,.09,0,.14-.1l.13-.14a4.31,4.31,0,0,0,.37-.37s.07,0,.11-.08.26-.24.38-.38.1-.09.15-.14L19.59,4,20,3.67a2.5,2.5,0,0,0,.31-.34,2.44,2.44,0,0,1,.23-.22,1.8,1.8,0,0,0,.26-.3.51.51,0,0,1,.18-.21.49.49,0,0,0,.16-.2.15.15,0,0,1,0-.08.09.09,0,0,1,.05,0v0s-.07.12,0,.11a.55.55,0,0,0,.18-.14l.09-.13s0-.07,0-.09,0-.05,0-.11.11-.12.17-.12,0,0,0,0,0,0,0,0a.22.22,0,0,0,.13-.09c.07-.12.19-.21.26-.33s.07-.07,0-.08,0-.07.05-.12a.23.23,0,0,0,0-.05c0-.08.08-.14.14-.2l.15-.17A1,1,0,0,1,22.7.68a.15.15,0,0,0,.06-.05,3,3,0,0,1,.39-.41.47.47,0,0,1,.17-.15.09.09,0,0,0,.05,0s0,0,.05,0,0,0,0,.06a.08.08,0,0,1-.05.05l-.05,0a.23.23,0,0,0-.08.11s0,0,.07,0,.06-.05.05,0a.07.07,0,0,1-.05.06l0,0s0,0,0,0,0,0,0,0h.05c.05,0,0,0,0,0h0s0,0-.06,0a.57.57,0,0,1-.14.13h0s0,.05,0,.07h0S23,.73,23,.77s0,.08,0,.08.05,0,.07-.06,0,0,0,0,0,0,0,0,0,.08,0,.14,0,0,0,0,0,.12,0,.23a.48.48,0,0,0-.06.21c0,.05,0,.05.09,0s.14-.12.21-.18a.6.6,0,0,1,.08-.08s0,0,0,0l0,0-.05.06s0,.06,0,.08,0,.09-.09.16-.13.11-.13.21,0,.08,0,.12,0,0-.05.06-.07,0-.08.06,0,.05.07,0,0,0,0,0l0,0S23,2,23,2s0,0-.08,0-.08.12,0,.12,0,.07.08.05a.23.23,0,0,0,0,0h0c-.08,0-.08,0-.16.09l0,.05a.36.36,0,0,0-.15.19.2.2,0,0,1-.1.13l-.09.08c-.1.1-.1.1-.1.17a.08.08,0,0,1,0,.09c-.06.06-.07.1-.06.14a.72.72,0,0,1-.17.28l0,0v0s.05-.09,0-.12,0,0,0,0l0,0,0,0a.13.13,0,0,1-.1.11c-.08,0-.09,0-.1.11s0,0,0,0,0,0,0,0v0s0-.06,0,0-.06,0-.08.07,0,0,0,.06,0,.11,0,.21-.05.08,0,.07,0,0,0,0L21.48,4a3.8,3.8,0,0,1-.33.37.63.63,0,0,0-.12.18.11.11,0,0,1-.09.07s0,0,0,0S21,4.5,21,4.49s-.07.07-.1.1l-.07.07s-.09.11-.12.07-.08,0-.12.1a.47.47,0,0,1-.06.09c-.09.1-.09.1,0,.13s0,0,0,.07a.22.22,0,0,0-.12.16l0,0h0c0-.05-.05-.07,0-.17s0,0,0,0a.13.13,0,0,0-.06.07s0,0-.06,0,0,0,0,0,0-.06,0-.13,0,0-.05,0,0-.09-.06,0-.07.09-.1.13l-.18.17s0,0,0,0,0,0,0-.05,0-.07,0,0h0c0,.09-.07.15,0,.2a.12.12,0,0,1,0,.11s0,.08-.09.09-.05,0-.06,0,0,0-.06,0-.11.08-.15.14h0s-.06.1-.1.15a.37.37,0,0,1-.13.12s-.12.06-.05.08,0,0,0,0l-.11.12s-.05.07,0,.09.06,0,.09,0,.1,0,.1-.1,0,0,0,0,0,.08-.06.11a.87.87,0,0,1-.27.16l-.05,0c.05,0-.06.09-.08.13h0s-.06.12-.11.09h0s0,0,0,0,0,0,0,0,0,.07.1,0,0,0,0,0,0,0,0,0-.09.12-.11.07-.05,0-.06.06-.09.11-.14.09a.17.17,0,0,0-.1.07,1.67,1.67,0,0,0-.12.16s-.05.08,0,0h0a.61.61,0,0,1,0,.14.15.15,0,0,0,0,.07s0,0-.05,0,0,0,0,0,.06-.06.06-.09,0,0,0,0,0,0,0,0a1.57,1.57,0,0,1-.2.25s-.08.1,0,.11,0,0,0,0l-.08.1c-.13.14-.21.28-.32.42a.2.2,0,0,0-.05.09s0,0,0,0,0,0,0,0a.3.3,0,0,1-.08.08,2,2,0,0,0-.33.38s0,.08-.09.13,0,.07,0,.08,0,0,0,.08a1.19,1.19,0,0,1-.15.18s0,0,0,0,0,0,0,0,0-.07,0-.06l-.12.07a0,0,0,0,0,0,0s0,.05,0,.08a.67.67,0,0,1-.18.16s0,0,0,0l0,0s0,0,0-.05,0,0,0,0-.05,0,0,0a.35.35,0,0,1,.08-.12.72.72,0,0,0,.15-.22,1.37,1.37,0,0,1,.21-.3l0,0s0,0,0,0,0,0,0,0a1,1,0,0,1-.2.16.14.14,0,0,0-.06.07.91.91,0,0,1-.21.23.81.81,0,0,0-.16.16s0,0,0,0,0,0,0,0a1,1,0,0,0,.14-.19s.09-.09,0-.11,0,0,0-.06.13-.13.18-.21,0,0,0-.05,0,0-.05,0a.39.39,0,0,0-.18.16,1,1,0,0,1-.16.2,1.37,1.37,0,0,0-.2.22h0s0,0,0-.05,0-.05.05-.1a.61.61,0,0,0,.19-.32c0-.06,0-.09,0-.13s-.05,0-.09,0l0,0s0,0,0,0,0,0,0,0a.53.53,0,0,0-.09.21s0,0-.05,0l0,0,0,0h0a.45.45,0,0,0-.2.24h0a1.7,1.7,0,0,0-.37.39s-.08.08-.11.11-.12.11-.12.18-.07.14-.13.21a.63.63,0,0,1-.15.18c-.06.06-.08.12-.06.14s0,.09-.06.13-.18.14-.21.24,0,0,0,0,0-.08,0-.18,0,0,0,0,0,0-.07,0l0,.08,0,.06s-.08.05-.09.1.05,0,.06,0,.06,0,0,.1,0,.06,0,.09a2.08,2.08,0,0,1-.44.57,3.08,3.08,0,0,0-.24.27s0,.07-.06.07,0-.07,0-.09.12-.15.2-.22.05-.07,0-.07-.07,0,0-.09,0,0,0,0a.76.76,0,0,0-.18.23l-.05,0a.27.27,0,0,0-.12.09,2.92,2.92,0,0,0-.23.29l0,0a.22.22,0,0,0-.17.14.14.14,0,0,1-.05.08,3.59,3.59,0,0,0-.32.36l-.07.08s-.06.06-.08,0,0,0-.06,0,0,.06,0,.07h0s.07,0,0,.05a1,1,0,0,1-.14.15s0,0,0,0a.15.15,0,0,0-.09.1s0,0,0,0a.53.53,0,0,0,.19-.15l.08-.1h0s0,0,0,0a.37.37,0,0,1-.08.15.64.64,0,0,0-.13.17l0,0a.55.55,0,0,1-.21.3,1.49,1.49,0,0,0-.15.2s0,0,0,0,.11-.06,0,0-.06,0-.07,0h0a1.13,1.13,0,0,1,.22-.28c.06,0,.06-.08,0-.08l0,0c0,.06-.06.06-.09.09a.52.52,0,0,0-.17.19.47.47,0,0,1-.13.15,2,2,0,0,0-.24.29s0,0,0,.05a.07.07,0,0,0,.06,0c0-.06.09-.09.13-.14h0v0h0a1.16,1.16,0,0,0-.19.28,1.1,1.1,0,0,1-.27.3.13.13,0,0,0-.06.07.45.45,0,0,1-.25.19.1.1,0,0,0-.08,0,.09.09,0,0,1-.07,0s0,0,0,0a.35.35,0,0,0-.08.1.78.78,0,0,1-.18.25.09.09,0,0,0,0,.08.37.37,0,0,1-.1.18s-.06,0-.06,0h0c-.05,0,0,0-.05,0s0,0,0,0a.08.08,0,0,0-.05.07h0s-.07.12,0,.13.08-.06.12-.09h0a0,0,0,0,1,0,0c-.06.06-.09.12-.15.18s-.08.12-.06.16,0,.06,0,.1a1.88,1.88,0,0,1-.24.25l0,0a2,2,0,0,1-.29.35l0,.06a3.29,3.29,0,0,0-.59.59c-.16.18-.33.35-.49.51s-.24.25-.36.38l0,0s-.07-.06-.07-.08-.09-.15-.17-.21l-.12-.11v0s-.12-.1-.14-.09,0,0-.08-.07S7,18.21,7,18.22s-.08,0-.11,0-.18-.09-.31-.24l-.1-.1a1.16,1.16,0,0,1-.26-.24L6,17.44l-.17-.15a.89.89,0,0,1-.12-.14c-.06-.08-.15-.13-.21-.22s-.07,0-.08,0-.06,0-.09-.06h0c-.06,0-.09-.09-.14-.13s0,0,0,0,.08,0,.12,0,0-.05,0-.08a.09.09,0,0,0-.06,0c-.09,0-.19-.05-.3-.16s-.09-.07-.08-.11,0-.07-.07-.08A.8.8,0,0,1,4.58,16c-.06-.07-.16-.12-.2-.21a.07.07,0,0,0,0,0,.52.52,0,0,1-.17-.13c-.22-.21-.45-.43-.66-.66A5.1,5.1,0,0,0,3,14.51a3.38,3.38,0,0,1-.26-.27A.93.93,0,0,0,2.47,14h0s0,0,0-.05a.94.94,0,0,0-.25-.24,2.78,2.78,0,0,1-.41-.29l-.06,0c-.08,0-.18-.07-.27-.17a3.08,3.08,0,0,0-.3-.33A1.38,1.38,0,0,1,1,12.63a2.51,2.51,0,0,1-.2-.29h0a.13.13,0,0,1-.07-.06l-.23-.37s-.06-.09-.05-.12v0a1.11,1.11,0,0,1-.15-.37c0-.06,0-.11,0-.13s0,0,0-.12,0,0,0,0,0,0,0,0,.08.07.1.05,0-.05,0-.1,0-.06,0-.05,0,0,0,0-.07-.07-.09-.05,0,.06-.07,0a.17.17,0,0,1-.08-.14s0-.07,0-.1,0-.08,0-.08,0,0,0-.1a.59.59,0,0,1-.1-.41.58.58,0,0,1,.13-.32s.06-.11,0-.23a.14.14,0,0,1,0-.14.48.48,0,0,0,.05-.17h0l0-.17s0,0,0,0A.24.24,0,0,0,.36,9h0s.07.08.08,0,.1,0,.08-.11a.13.13,0,0,1,.06-.17s0,0,.06,0,.17,0,.17-.09,0,0,0,0l0,0,.05.1c0,.06.06.08.1.07l0,0s0,0,.09,0a3.63,3.63,0,0,1,.41.47l.06.07c.12.13.17.16.25.13h0s0,0,.06,0l0,.06a.24.24,0,0,0,.13.13.27.27,0,0,1,.14.12.44.44,0,0,0,.19.17.17.17,0,0,1,.13.13,0,0,0,0,0,0,0c.13.12.18.26.3.39a.62.62,0,0,1,.2.23c.13.11.2.27.35.37a1.21,1.21,0,0,1,.19.2l.27.3a2.69,2.69,0,0,1,.27.32l.11.11a.42.42,0,0,1,.11.13.16.16,0,0,0,.08.08l.06,0c.05.12.16.18.24.26a1,1,0,0,1,.18.17l.11.1a1.05,1.05,0,0,1,.23.24,1.13,1.13,0,0,0,.19.19,3.45,3.45,0,0,1,.28.26c.23.2.42.43.64.64l.38.38.16.16a2,2,0,0,1,.25.25s0,0,0,0l0,0A.65.65,0,0,0,7,14.91l0,0s0,0,0,0a3.87,3.87,0,0,0,.4.41l.08.08,0,0h0l0,0s0,0,.06.06a.76.76,0,0,1,.09.09l0,0,.06-.09,0-.06,0,0,.1-.09c.12-.13.25-.25.36-.38s.23-.24.34-.36.06,0,.1,0a.31.31,0,0,1,.07-.09,3.19,3.19,0,0,0,.33-.31c.05-.05.1-.13.17-.16l0,0,.61-.63c.15-.16.32-.32.49-.47a4.06,4.06,0,0,0,.44-.49L11,12.3a3.58,3.58,0,0,0,.29-.26,1.75,1.75,0,0,0,.28-.33s0-.06.06-.06l0,0-.06.06,0,0a.05.05,0,0,0,0,0s0,0,0,0a1.09,1.09,0,0,0,.17-.13.27.27,0,0,0,.1-.15.33.33,0,0,1,.14-.17A2.11,2.11,0,0,0,12.3,11l0,0c.12,0,.2-.16.3-.24a1.29,1.29,0,0,0,.28-.29s0,0,.07-.06l0,0c0-.09.1-.12.16-.17s.21-.22.31-.32.26-.27.37-.41A.44.44,0,0,1,14,9.31a.21.21,0,0,0,.12-.11s0,0,0,0,0,0,.09-.05S14.38,9,14.4,9Z"/><path class="cls-1" d="M20.56,5.12l.07-.06a.18.18,0,0,0,.1-.12s0-.05,0-.07.07-.09.08-.09,0,0,0,.08a.31.31,0,0,0,0,.1c0,.1-.11.18-.18.25a1,1,0,0,0-.17.18l-.09.11s0,0-.06,0,0,0,0-.06l.22-.34c.05-.06.07,0,.09,0Z"/><path class="cls-1" d="M22.11,3.41a1,1,0,0,0-.27.27c0,.07-.13.09-.17.17s0,0,0,0l0,0s-.07,0,.06-.12.08-.1.13-.09.08,0,.1-.08.1-.1.14-.15a.1.1,0,0,1,.08,0c.06,0,.07,0,0,.08s-.09.14-.16.21a.81.81,0,0,1-.16.16s.08-.1.12-.16a.82.82,0,0,0,.12-.2Z"/><path class="cls-1" d="M12.8,13.9s0-.06,0-.05-.05,0,0-.06,0,0,0,0-.05,0,0-.07.14-.14.23-.14h0c.07,0,.08,0,0,0l-.09.09c-.05,0-.07.08-.05.09s.07,0,.09-.06.19-.18.28-.28,0,0,0,0l0,.05a5.36,5.36,0,0,1-.4.43s0,0,0,0Z"/><path class="cls-1" d="M15.48,10.32l-.05,0h0a.3.3,0,0,1,0-.11s0,0,0,0l-.06,0s-.07.06-.08,0,.1-.14.12-.15,0,0,0,0,0,0,.06,0,.05,0,.07-.06a.8.8,0,0,1,.15-.18s.09,0,.09,0,0,0,0,0a.25.25,0,0,0-.11.12s0,.08-.11.09a.15.15,0,0,0-.09.14Z"/><path class="cls-1" d="M13.16,13.36s-.05,0,0,.06,0,0,0,.07-.05,0-.07,0,0,0,0-.06l.06-.07a1.1,1.1,0,0,0,.14-.18l0,0h0A.62.62,0,0,1,13.16,13.36Z"/><path class="cls-1" d="M10.88,15.49l0,0s0,0,0,0v0a2,2,0,0,1-.18.25l0,0s0,0,0,0,.08-.14.13-.21Z"/><path class="cls-1" d="M12.56,13.67v.05a.15.15,0,0,1-.11.11s0,0,0-.07l.1-.09Z"/><path class="cls-1" d="M10.12,16.27a.24.24,0,0,0,.1-.08h0a.59.59,0,0,1,0,.08l0,.05s-.05,0-.06,0Z"/><path class="cls-1" d="M22.09,1.31s0,0,.06,0,0,0,0,.05a.32.32,0,0,1-.1.1,0,0,0,0,1,0,0S22.07,1.34,22.09,1.31Z"/><path class="cls-1" d="M15.65,10.58a.27.27,0,0,1-.06.1h0s0,0,0-.07A.07.07,0,0,1,15.65,10.58Z"/><path class="cls-1" d="M20.48,5.41l0,0-.08.11s0,0,0,0h0l.11-.12Z"/><path class="cls-1" d="M15.47,9.91s0,.08-.06.12h0s0-.08,0-.12Z"/><path class="cls-1" d="M12.6,13.27s0,0,.05,0,0,0-.05.08,0,0,0,0S12.56,13.3,12.6,13.27Z"/><path class="cls-1" d="M18.84,6.69a.21.21,0,0,1-.06.08s0,0,0,0,0,0,0-.07S18.83,6.68,18.84,6.69Z"/><path class="cls-1" d="M23.11,1.92l0,0-.07.1h0S23.08,2,23.11,1.92Z"/><path class="cls-1" d="M10.32,16.1a.2.2,0,0,1,0-.08s0,0,0,0a.1.1,0,0,1,0,.08S10.33,16.1,10.32,16.1Z"/><path class="cls-1" d="M15.82,7.63s0,0,0,0,0,0,0,0,0,0,0,0Z"/><path class="cls-1" d="M10.44,15.84l0,0s0,0,0,0l0,0S10.45,15.82,10.44,15.84Z"/><path class="cls-1" d="M11.67,14.47s0,0,0,0,0,0,0,0,0,0,0,0Z"/><path class="cls-1" d="M23.17,1.6l0,0,.05-.06,0,0Z"/><path class="cls-1" d="M17,9.26l0,0s0,0,.05,0,0,0,0,0S17,9.26,17,9.26Z"/><path class="cls-1" d="M16,9.27s0,0,0,0,0,0,0,0a.08.08,0,0,1,0,0Z"/><path class="cls-1" d="M13.5,13.11a.08.08,0,0,1,0,0h0s0,0,0,0Z"/><path class="cls-1" d="M19.79,5.69s0,0,0,0h0s0,0,0,0S19.77,5.7,19.79,5.69Z"/><path class="cls-1" d="M15.17,10.29s0,0,0,0a.09.09,0,0,1,.05,0s0,0,0,0l0,0,0,0Z"/><path class="cls-1" d="M15.61,9.61s0,0,0,.06h0s0,0,0-.07Z"/><path class="cls-1" d="M21.82,1.58l0,0,0,0s0,0,0,0Z"/><path class="cls-1" d="M13.56,12.15h0s0,0,0,0l0,0Z"/><path class="cls-1" d="M15.3,11l0,0h0s0,0,0,0Z"/><path class="cls-1" d="M15.17,10.29l0,.06v0s0,0,0,0l.05-.06Z"/><path class="cls-1" d="M19.68,5.93V6h0s0,0,0,0A0,0,0,0,0,19.68,5.93Z"/><path class="cls-1" d="M11.16,15.25h0v0h0S11.17,15.24,11.16,15.25Z"/><path class="cls-1" d="M22.53,2.69h0s0,0,0,0,0,0,0,0Z"/><path class="cls-1" d="M8.36,18.3s0,0,0,0,0,0,0,0l0,0S8.37,18.29,8.36,18.3Z"/><path class="cls-1" d="M12.7,13.5s0,.06,0,.08h0s0,0,0-.08Z"/><path class="cls-1" d="M7.59,15.44h0Z"/><polygon class="cls-1" points="15.82 10 15.85 9.96 15.82 10 15.82 10"/><path class="cls-1" d="M15.13,10.23h0s0,0,0,0h0Z"/><path class="cls-1" d="M16.4,9.86h0Z"/><path class="cls-1" d="M23.13.56s0,0-.05.09h0s0-.06.05-.1Z"/><path class="cls-1" d="M20.61,5.26h0l0,0s0,0,0,0Z"/><path class="cls-1" d="M15,10.53v0l0,0h0l0,0Z"/><path class="cls-1" d="M15.17,10.84l0,0s0,0,0,0h0Z"/><polygon class="cls-1" points="14.63 8.76 14.62 8.77 14.62 8.76 14.63 8.75 14.63 8.76"/><polygon class="cls-1" points="22.37 2.78 22.37 2.79 22.34 2.8 22.35 2.79 22.37 2.78"/><path class="cls-1" d="M13.6,13h0s0,0,0,0Z"/><path class="cls-1" d="M13.71,12.88h0Z"/><path class="cls-1" d="M12.89,13.3l0,0h0l0,.05Z"/><path class="cls-1" d="M15.19,10.14h0l0,0h0Z"/><polygon class="cls-1" points="19.68 5.7 19.69 5.69 19.69 5.7 19.68 5.7 19.68 5.7"/><path class="cls-1" d="M21.74,1.77h0v0h0Z"/><path class="cls-1" d="M18.22,7.38Z"/><path class="cls-1" d="M15.89,9.51h0Z"/><path class="cls-1" d="M23.42,1.25h0s0,0,0,0h0Z"/><path class="cls-1" d="M13.81,12.57l0,.06h0s0,0,0,0Z"/><polygon class="cls-1" points="16.32 9.64 16.35 9.61 16.35 9.62 16.32 9.64 16.34 9.63 16.32 9.64"/><path class="cls-1" d="M20.1,5.79h0Z"/><path class="cls-1" d="M15.28,10.68h0Z"/><polygon class="cls-1" points="12.61 13.62 12.67 13.58 12.67 13.58 12.61 13.62 12.61 13.63 12.61 13.62"/><rect class="cls-1" x="19.19" y="6.18" width="0.05" transform="translate(-0.8 8.83) rotate(-25.36)"/><polygon class="cls-1" points="13.86 12.51 13.85 12.51 13.85 12.51 13.86 12.51"/><path class="cls-1" d="M10.88,15.49l0,0h0Z"/><polygon class="cls-1" points="16.16 9.7 16.15 9.7 16.16 9.69 16.16 9.7"/><path class="cls-1" d="M15.09,11h0Z"/><polygon class="cls-1" points="12.8 13.89 12.81 13.9 12.8 13.9 12.8 13.89"/><polygon class="cls-1" points="19.24 6.17 19.25 6.17 19.25 6.17 19.24 6.17"/><polygon class="cls-1" points="16.32 9.64 16.33 9.64 16.32 9.64 16.32 9.64"/><path class="cls-1" d="M15.82,10Z"/><polygon class="cls-1" points="15.95 9.64 15.96 9.64 15.95 9.64 15.95 9.64"/><polygon class="cls-1" points="2.47 13.98 2.48 13.99 2.47 13.99 2.47 13.98"/><polygon class="cls-1" points="19.2 6.2 19.19 6.2 19.2 6.2 19.2 6.2"/><polygon class="cls-1" points="15.09 10.95 15.1 10.95 15.09 10.96 15.09 10.95"/><path class="cls-1" d="M11.74,14.39Z"/><path class="cls-1" d="M15,10.48h0s0,0,0,0h0Z"/><path class="cls-1" d="M12.56,13.67s0,0,0-.05h0l0,.05Z"/><path class="cls-1" d="M16.48,9.47Z"/><path class="cls-1" d="M12.7,13.5Z"/><path class="cls-1" d="M13.78,12.63h0Z"/><polygon class="cls-1" points="20.32 5.33 20.31 5.33 20.32 5.32 20.32 5.33"/><path class="cls-1" d="M13.81,12.57Z"/><polygon class="cls-1" points="12.89 13.31 12.88 13.31 12.89 13.3 12.89 13.31"/><polygon class="cls-1" points="16.48 9.46 16.48 9.46 16.48 9.47 16.48 9.46"/><path class="cls-1" d="M15,10.48s0,0,0,0h0s0,0,0,0Z"/><path class="cls-1" d="M14.4,9Z"/><polygon class="cls-1" points="7.59 15.44 7.59 15.44 7.59 15.44 7.59 15.44"/><polygon class="cls-1" points="15.56 9.76 15.56 9.76 15.55 9.77 15.56 9.76"/><path class="cls-1" d="M15.8,9.37h0s0,0,0,0Z"/><path class="cls-1" d="M11,14.71v.08H11l.06-.08s0-.05.06-.05,0,0,0,.06a.79.79,0,0,1-.12.15l-.3.32-.1.09c-.06,0-.09,0-.07,0a.33.33,0,0,0,0-.06c0-.15.17-.29.29-.43s.08,0,.12-.06Z"/><path class="cls-1" d="M10.3,15.67l0,.05,0,0c0-.09-.05,0-.09,0s0,0-.05,0,0,0,0-.08.16-.2.25-.29.07-.09.1-.08.06,0,0,.07l-.06.09,0,.05A.24.24,0,0,1,10.3,15.67Z"/><path class="cls-1" d="M20.25,4.62s0,0,0,0-.05.09-.1.1,0,.05-.06.07,0,0,0,0a.05.05,0,0,1,0,.06A.1.1,0,0,0,20,5s0,.06,0,0-.1,0-.06,0,.07-.12,0-.09v0l.06,0a2.51,2.51,0,0,0,.29-.2Z"/><path class="cls-1" d="M20.48,4.85c0,.05-.1.08-.11.14s0,.06-.06,0,0,0,0,0-.11.06-.08,0a.6.6,0,0,1,.13-.21l0,0c.08,0,.13-.07.19-.15s0,0,.06,0,0,0,0,.07-.08.07-.1.12h0Z"/><path class="cls-1" d="M20.54,4.24l0,0s.08-.08.09,0,0,.08-.06.13a.39.39,0,0,0-.1.08l-.09.08s-.06,0-.06,0,0,0,0-.06S20.49,4.29,20.54,4.24Z"/><path class="cls-1" d="M22.22,2.16c0-.05,0-.07,0-.09s0,0,0,0,0,0,0,0,0,0,.08,0,0,0,0,0,0,0,0,0a.14.14,0,0,0,0-.09s0-.06.06-.07,0,0,0,0,.05.05,0,.11-.13.15-.19.13,0,0-.06,0Z"/><path class="cls-1" d="M21,4.2s0,0,0,0-.06,0-.09.07,0,0,0,.05,0,0,0,0-.09.05-.12,0,0,0,0-.09a.33.33,0,0,1,.11-.1A.31.31,0,0,1,21,4.2Z"/><path class="cls-1" d="M21.35,4.11c-.05,0-.09.11-.11.07s0,0,.05-.11A.24.24,0,0,0,21.35,4a.15.15,0,0,1,.1-.08s0,0,0,0A.62.62,0,0,1,21.35,4.11Z"/><path class="cls-1" d="M22.64,1.67c-.11.05-.14.05-.11,0s0,0,0,0,.06,0,.11-.06.12-.09.15-.06,0,.08-.08.12,0,0,0,0,0-.05,0-.05-.06,0-.08.05l-.05.06Z"/><path class="cls-1" d="M22.91,1.49h0s.1,0,.11,0-.06.09-.1.13a.11.11,0,0,1-.09.06s0,0,0-.06,0-.07.06-.11Z"/><path class="cls-1" d="M23.13.55a.47.47,0,0,0-.05.1h0c-.06,0-.08,0-.08,0a.18.18,0,0,1,.07-.09C23.12.5,23.12.54,23.13.55Z"/><path class="cls-1" d="M21.14,2.51s0,.07,0,.11a.26.26,0,0,1-.09.09s0,0,0,0,.09-.1.11-.16Z"/><path class="cls-1" d="M.39,10.86c-.06-.06-.1,0-.13-.08s0,0,0-.07,0,0,.06,0A.52.52,0,0,1,.39,10.86Z"/><path class="cls-1" d="M19.65,5.09l.05,0s.05,0,.05,0a.08.08,0,0,1-.05.07l-.06,0h0S19.62,5.12,19.65,5.09Z"/><path class="cls-1" d="M.16,9.23s.06,0,.09,0a.13.13,0,0,1,0,.12s0,0,0,0a.67.67,0,0,0-.09-.14Z"/><path class="cls-1" d="M22.27,2s-.05,0-.05,0,0,0,0-.07a0,0,0,0,1,.05,0h0s.07-.06.06,0S22.29,1.93,22.27,2Z"/><path class="cls-1" d="M7.91,18.09l-.06.07s0,0,0,0a.19.19,0,0,1,0-.08A.5.5,0,0,0,8,18s.06,0,.06,0a.2.2,0,0,1-.06.09l0,0Z"/><path class="cls-1" d="M22.7,1.39s.06,0,.08,0,0,0,0,.07-.05,0-.06,0S22.67,1.43,22.7,1.39Z"/><path class="cls-1" d="M22.22,1.58s0,0,0,0,0,0,0,0v0a.76.76,0,0,1-.09.09s0,0,0,0A.26.26,0,0,1,22.22,1.58Z"/><path class="cls-1" d="M21.71,3s0,0,0,.07,0,0-.05,0,0-.05,0-.08S21.7,3,21.71,3Z"/><path class="cls-1" d="M.21,10.54s-.06-.07,0-.07,0,0,.08,0,0,.05,0,.05S.22,10.54.21,10.54Z"/><path class="cls-1" d="M14.53,10.88s-.06,0-.08,0,0,0,0-.06a.06.06,0,0,1,.06,0S14.55,10.86,14.53,10.88Z"/><path class="cls-1" d="M10.06,16s0,0,0,0,0,0,0-.07,0,0,0,0S10.09,16,10.06,16Z"/><path class="cls-1" d="M22.75.72s0,.06-.05.09l-.06,0s0-.06.06-.09A.07.07,0,0,1,22.75.72Z"/><path class="cls-1" d="M9.48,16.09s0,0,0-.07,0,0,0,0-.05,0-.07.06Z"/><path class="cls-1" d="M16.79,9.44s0,0-.05,0,0,0,0,0a.05.05,0,0,1,0,0S16.8,9.42,16.79,9.44Z"/><path class="cls-1" d="M23,.46s.05-.06.06-.05,0,0,0,.06S23,.52,23,.51,23,.47,23,.46Z"/><path class="cls-1" d="M14,11.39s0,0,0,0l0,0s0,0,0-.06S14,11.38,14,11.39Z"/><path class="cls-1" d="M12.2,13.18s0,0,0-.08h0s0,0,0,0,0,0-.06.05l-.05,0Z"/><path class="cls-1" d="M12.22,13.1a.23.23,0,0,1-.12.1h0c0-.06.08-.06.12-.08Z"/><path class="cls-1" d="M11.9,13.6s0,0,0,0l-.05,0,0,0S11.89,13.59,11.9,13.6Z"/><path class="cls-1" d="M21.59,1.93s0,0,0,0,0,0,0,0,0,0,0,0S21.61,1.91,21.59,1.93Z"/><path class="cls-1" d="M19.6,5.55a.05.05,0,0,1,0,0s0,0,0,0a.07.07,0,0,1,0,0Z"/><path class="cls-1" d="M19.34,5.9s-.08,0-.07,0a0,0,0,0,0,0,0c.06,0,0,0,.05.06Z"/><path class="cls-1" d="M3.49,13.67s0,0,0-.05h0s0,0,0,0Z"/><path class="cls-1" d="M22.61,2s0,0,0,0-.05,0-.08.06,0,0,0,0S22.58,2,22.61,2Z"/><path class="cls-1" d="M12.14,13.23s-.06.07-.09.06h0s.06,0,.08,0Z"/><path class="cls-1" d="M22.4,1.4s0,0,0,0,0,0,0,0,0,0,0,0S22.42,1.38,22.4,1.4Z"/><path class="cls-1" d="M9.05,16.83l0,0,0,.06s0,0,0,0Z"/><path class="cls-1" d="M22.66,1.73s0,0,0,0,0,0,0,0,0,0,0,0S22.64,1.73,22.66,1.73Z"/><path class="cls-1" d="M19.4,5.46v0s0,0,0,0,0,0,0,0Z"/><path class="cls-1" d="M9.27,16.34h0s0,0,0,.07h0s0,0,0-.07Z"/><path class="cls-1" d="M21.35,3.9h0s0,0,0,.05h0A.06.06,0,0,1,21.35,3.9Z"/><path class="cls-1" d="M22.44,2.56a.09.09,0,0,1,0,0s0,0,0,0a.06.06,0,0,1,0,0S22.44,2.55,22.44,2.56Z"/><path class="cls-1" d="M9.38,16.22h0s0,0,0,0Z"/><path class="cls-1" d="M22.17,3a0,0,0,0,1,0,0s0,0,0,0l0,0Z"/><path class="cls-1" d="M11.08,14.56l0,0s0,0,0,0l0,0Z"/><path class="cls-1" d="M22.62,2.3s0,0,0,0,0,0,0,0,0,0,0,0S22.62,2.29,22.62,2.3Z"/><path class="cls-1" d="M11.31,14.45h0l0,0h0S11.29,14.47,11.31,14.45Z"/><path class="cls-1" d="M21.72,3.24l0,0s0,0,0,0l0,0S21.72,3.22,21.72,3.24Z"/><path class="cls-1" d="M22,3l0,.06a.05.05,0,0,1,0,0s0,0,0,0L22,3Z"/><path class="cls-1" d="M7.33,18.5l0,0s0-.06,0-.07h0a.08.08,0,0,1,0,.07v0Z"/><path class="cls-1" d="M22.89.65s0,0,0,0l0,0s0,0,0,0S22.88.64,22.89.65Z"/><path class="cls-1" d="M21.61,3.38a.05.05,0,0,1,0,0s0,0,0,0,0,0,0,0S21.6,3.37,21.61,3.38Z"/><path class="cls-1" d="M22.25,1.39s0,0,0,0,0,0,0,0,0,0,0,0S22.25,1.39,22.25,1.39Z"/><path class="cls-1" d="M19.26,5.77s0,0,0,0h0a0,0,0,0,1,0,0Z"/><path class="cls-1" d="M6.86,14.77h0l0,0h0Z"/><path class="cls-1" d="M3.62,13.81l0,0h0S3.63,13.81,3.62,13.81Z"/><path class="cls-1" d="M21.33,3.33v0s0,0,0,0a.08.08,0,0,1,0,0S21.32,3.32,21.33,3.33Z"/><path class="cls-1" d="M22.5,1.27s0,0,0,0,0,0,0,0a0,0,0,0,0,0,0Z"/><path class="cls-1" d="M8.24,17.38l0,0s0,0,0,0,0,0,0,0S8.23,17.39,8.24,17.38Z"/><path class="cls-1" d="M17.75,8h0s0,0,0,0,0,0,0,0l0,0Z"/><path class="cls-1" d="M18.19,7.25h0l0,0h0S18.17,7.27,18.19,7.25Z"/><path class="cls-1" d="M19.88,5.19v0h0v0S19.87,5.18,19.88,5.19Z"/><path class="cls-1" d="M1.6,13.28h.06s0,0,0,0a.09.09,0,0,1,0,0Z"/><path class="cls-1" d="M1.6,13.28v0h0s0,0,0,0Z"/><path class="cls-1" d="M8.22,18.05h0l0,0h0Z"/><path class="cls-1" d="M14.5,11l0,0h0l0,0Z"/><path class="cls-1" d="M9.39,15.17h0Z"/><path class="cls-1" d="M14.57,10.93s0,0,0,0h0v0Z"/><path class="cls-1" d="M8.26,17.67h0s0,0,0,0h0S8.25,17.69,8.26,17.67Z"/><path class="cls-1" d="M19.74,5.26s0,0,0,0h0s0,0,0,0Z"/><path class="cls-1" d="M12,13.38h0a0,0,0,0,1,0,0Z"/><path class="cls-1" d="M7.92,18.36h0s0,0,0,0h0S7.94,18.34,7.92,18.36Z"/><polygon class="cls-1" points="9.37 15.96 9.37 15.97 9.35 15.98 9.35 15.97 9.37 15.96"/><path class="cls-1" d="M11.88,13.91s0,0,0,0,0,0,0,0l0,0Z"/><path class="cls-1" d="M6,16.6H6Z"/><path class="cls-1" d="M8.93,16.67h0l0,0h0Z"/><path class="cls-1" d="M16.56,9.52v0h0l0,0Z"/><path class="cls-1" d="M12.47,13s0,0,0,0h0S12.46,13,12.47,13Z"/><path class="cls-1" d="M22.63,1.67s0,0,0,0h0l0,0Z"/><path class="cls-1" d="M6.78,16.93h0s0,0,0,0v0Z"/><path class="cls-1" d="M23,.53h0v0h0Z"/><path class="cls-1" d="M16.48,9.18l0,0s0,0,0,0l0,0S16.49,9.17,16.48,9.18Z"/><polygon class="cls-1" points="4.15 15.54 4.15 15.53 4.15 15.53 4.16 15.53 4.15 15.54"/><path class="cls-1" d="M3.15,13.38v0s0,0,0,0Z"/><path class="cls-1" d="M11,14.67l0,0h0s0,0,0,0l0,0Z"/><path class="cls-1" d="M23,1.71v0h0s0,0,0,0Z"/><path class="cls-1" d="M.54,9.19h0s0,0,0,0Z"/><path class="cls-1" d="M22.7,2V2h0l0,0Z"/><path class="cls-1" d="M18.32,7.15s0,0,0,0h0a0,0,0,0,0,0,0Z"/><path class="cls-1" d="M21.91,2.46h0s0,0,0,0h0S21.92,2.46,21.91,2.46Z"/><path class="cls-1" d="M9.48,16.09l0,0h0s0,0,0,0Z"/><path class="cls-1" d="M19.57,5.22l0,0h0l0,0Z"/><path class="cls-1" d="M22.91,1.49s0,0,0,0,0,0,0,0,0,0,0,0Z"/><path class="cls-1" d="M21.55,3.84l0,0h0v0Z"/><path class="cls-1" d="M19.23,6h0l0,0s0,0,0,0Z"/><path class="cls-1" d="M12.49,12.81h0l0,0Z"/><path class="cls-1" d="M18.25,7.14v0h0l0,0Z"/><path class="cls-1" d="M22.42,2.16h0Z"/><polygon class="cls-1" points="3.04 13.16 3.03 13.15 3.04 13.15 3.04 13.16 3.04 13.16"/><polygon class="cls-1" points="22.15 2.04 22.14 2.05 22.14 2.05 22.15 2.04"/><path class="cls-1" d="M22.05,2.1a0,0,0,0,1,0,0s0,0,0,0h0Z"/><path class="cls-1" d="M3.16,13.31h0Z"/><polygon class="cls-1" points="12.1 12.84 12.1 12.85 12.1 12.85 12.1 12.84"/><path class="cls-1" d="M22.48,2h0s0,0,0,0,0,0,0,0Z"/><path class="cls-1" d="M12.14,13.24l.06-.06h0s0,0,0,.05Z"/><path class="cls-1" d="M3.31,14.7h0s0,0,0,0h0Z"/><polygon class="cls-1" points="7.45 17.99 7.44 17.98 7.44 17.98 7.45 17.99"/><path class="cls-1" d="M7.44,18.31s0,0,0,0,0,0,0,0,0,0,0,0Z"/><polygon class="cls-1" points="8.39 17.57 8.39 17.56 8.39 17.57 8.39 17.57"/><polygon class="cls-1" points="8.49 17.45 8.5 17.44 8.51 17.44 8.49 17.45"/><path class="cls-1" d="M9.21,16.85h0v0Z"/><polygon class="cls-1" points="3.66 15.07 3.67 15.08 3.66 15.08 3.65 15.07 3.66 15.07"/><path class="cls-1" d="M5.84,16.75h0s0,0,0,0Z"/><polygon class="cls-1" points="0.78 9.33 0.78 9.33 0.78 9.34 0.78 9.33"/><path class="cls-1" d="M22.64,1.2a0,0,0,0,1,0,0s0,0,0,0h0Z"/><path class="cls-1" d="M7.44,18.3l0,0s0,0,0,0Z"/><path class="cls-1" d="M5.46,16.37Z"/><polygon class="cls-1" points="6.3 16.43 6.3 16.43 6.31 16.44 6.3 16.43"/><polygon class="cls-1" points="15.64 7.88 15.64 7.89 15.63 7.89 15.64 7.88"/><path class="cls-1" d="M21.5,2.14h0s0,0,0,0h0Z"/><polygon class="cls-1" points="22.56 1.18 22.55 1.19 22.55 1.18 22.56 1.18"/><path class="cls-1" d="M21.75,2h0a0,0,0,0,1,0,0Z"/><path class="cls-1" d="M21.32,3.81v0h0v0Z"/><polygon class="cls-1" points="16.22 8.96 16.21 8.97 16.21 8.96 16.22 8.96"/><polygon class="cls-1" points="3.86 15.28 3.86 15.27 3.87 15.28 3.86 15.28"/><path class="cls-1" d="M21.51,3.77h0s0,0,0,0Z"/><path class="cls-1" d="M9.71,15.67h0S9.7,15.67,9.71,15.67Z"/><rect class="cls-1" x="22.22" y="2.15" height="0.01" transform="translate(8.68 19.91) rotate(-58.21)"/><polygon class="cls-1" points="5.46 16.37 5.44 16.35 5.46 16.37 5.46 16.37"/><polygon class="cls-1" points="12.22 12.85 12.22 12.86 12.21 12.86 12.22 12.85"/><polygon class="cls-1" points="16.22 8.84 16.21 8.85 16.21 8.84 16.22 8.84 16.22 8.84"/><path class="cls-1" d="M10.14,15h0Z"/><path class="cls-1" d="M11,14.67h0s0,0,0,0Z"/><polygon class="cls-1" points="10.06 15.9 10.04 15.91 10.05 15.91 10.06 15.9 10.06 15.9"/><path class="cls-1" d="M7.6,18.16l0,0h0v0S7.59,18.14,7.6,18.16Z"/><path class="cls-1" d="M17.75,8v0s0,0,0,0Z"/><path class="cls-1" d="M11.21,14.59h0Z"/><polygon class="cls-1" points="17.13 8.65 17.13 8.65 17.13 8.65 17.13 8.65"/><path class="cls-1" d="M7.14,17.78l0,0h0Z"/><path class="cls-1" d="M8.33,17.67h0Z"/><path class="cls-1" d="M7.14,17.77h0Z"/><rect class="cls-1" x="10.14" y="15.41" width="0.01" height="0.01" transform="translate(-8.29 16.38) rotate(-59.66)"/><polygon class="cls-1" points="12.98 12.46 12.98 12.46 12.98 12.47 12.98 12.46"/><path class="cls-1" d="M20.51,4.83l0,0h0s0,0,0,0Z"/><polygon class="cls-1" points="10.14 15.41 10.13 15.42 10.14 15.41 10.14 15.41"/><path class="cls-1" d="M.76,12.34h0Z"/><polygon class="cls-1" points="5.37 16.87 5.36 16.86 5.37 16.86 5.37 16.87"/><path class="cls-1" d="M7.34,18h0Z"/><polygon class="cls-1" points="7.59 18.16 7.59 18.15 7.6 18.16 7.59 18.16"/><polygon class="cls-1" points="3.16 13.38 3.15 13.37 3.15 13.38 3.16 13.38"/><polygon class="cls-1" points="5.84 16.74 5.84 16.74 5.84 16.75 5.84 16.74"/><polygon class="cls-1" points="10.09 16.2 10.09 16.21 10.09 16.2 10.09 16.2"/><polygon class="cls-1" points="9.27 16.34 9.28 16.34 9.27 16.34 9.27 16.34"/><path class="cls-1" d="M14.56,10.93h0Z"/><path class="cls-1" d="M18.63,6.82h0s0,0,0,0Z"/><polygon class="cls-1" points="10.06 15.9 10.05 15.9 10.06 15.9 10.06 15.9"/><path class="cls-1" d="M7.34,18h0Z"/><polygon class="cls-1" points="21.82 2.78 21.82 2.78 21.82 2.79 21.82 2.78"/><polygon class="cls-1" points="23.33 0.38 23.32 0.38 23.32 0.38 23.33 0.38"/><polygon class="cls-1" points="15.08 8.41 15.09 8.4 15.08 8.41 15.08 8.41"/><polygon class="cls-1" points="19.46 5.67 19.47 5.66 19.47 5.67 19.46 5.67"/><polygon class="cls-1" points="10.14 15 10.13 15 10.14 15 10.14 15"/><polygon class="cls-1" points="21.97 2.96 21.97 2.95 21.97 2.95 21.97 2.96"/><path class="cls-1" d="M20.56,5.12h0Z"/><polygon class="cls-1" points="22.11 3.41 22.1 3.41 22.11 3.42 22.11 3.41"/><path class="cls-1" d="M13,13.57h0Z"/><path class="cls-1" d="M11,14.79v0s0,0,0,0Z"/><path class="cls-1" d="M11,14.79v0a0,0,0,0,1,0,0Z"/><path class="cls-1" d="M20.51,4.83l0,0s0,0,0,0S20.5,4.82,20.51,4.83Z"/></g></g></svg>